# xmcd CD database file
#
# Track frame offsets:
#	150
#	16541
#	33286
#	49194
#	65764
#	83469
#	98568
#	110794
#	126319
#	143555
#	161480
#	177362
#	192538
#
# Disc length: 2802 seconds
#
# Revision: 0
# Processed by: cddbd v1.4PL0 Copyright (c) Steve Scherf et al.
# Submitted via: CDex 1.50beta10
#
DISCID=a70af00d
DTITLE=Brandon Wolfe - Tough Job
DYEAR=2002
DGENRE=Country
TTITLE0=Tough Job
TTITLE1=Straight To You
TTITLE2=All The Wrong Horses
TTITLE3=Rockin' And Rollin' Someday
TTITLE4=Where Corn Don't Grow
TTITLE5=Happx Birthday Heartache
TTITLE6=Listen
TTITLE7=Shadow Of A Fool
TTITLE8=Stars Don't Just Fall
TTITLE9=Running Out Of Time
TTITLE10=She Just Wants To Dance
TTITLE11=Honky Tonk Callin'
TTITLE12=If I Gave My Heart To You
EXTD=YEAR: 2002
EXTT0=
EXTT1=
EXTT2=
EXTT3=
EXTT4=
EXTT5=
EXTT6=
EXTT7=
EXTT8=
EXTT9=
EXTT10=
EXTT11=
EXTT12=
PLAYORDER=
